<?xml version="1.0" encoding="UTF-8"?>
<svg width="335px" height="313px" viewBox="0 0 335 313" version="1.1" xmlns="http://www.w3.org/2000/svg" xmlns:xlink="http://www.w3.org/1999/xlink">
    <title>编组 4</title>
    <defs>
        <path d="M103,0 L117,0 C145.718807,-5.27555926e-15 169,23.281193 169,52 L169,127 C169,140.254834 158.254834,151 145,151 L75,151 C61.745166,151 51,140.254834 51,127 L51,52 C51,23.281193 74.281193,5.27555926e-15 103,0 Z" id="path-1"></path>
        <path d="M41.8179474,108.675945 L27.3465881,107.87421 L15.5446014,101.086391 L2.32426453,90.513752 L0,78.5873528 L2.32426453,54.3819542 L17.6421967,19.6490517 L27.3465881,2.52604485 L33.0563965,0 C40.9814351,67.3909276 44.9439545,101.086391 44.9439545,101.086391 C44.9439545,101.086391 43.9019521,103.616243 41.8179474,108.675945 Z" id="path-3"></path>
        <path d="M41.8179474,108.675945 L27.3465881,107.87421 L15.5446014,101.086391 L2.32426453,90.513752 L0,78.5873528 L2.32426453,54.3819542 L17.6421967,19.6490517 L27.3465881,2.52604485 L33.0563965,0 C40.9814351,67.3909276 44.9439545,101.086391 44.9439545,101.086391 C44.9439545,101.086391 43.9019521,103.616243 41.8179474,108.675945 Z" id="path-5"></path>
        <path d="M6.68743352,0 L238.067027,0 C241.93302,1.21364172e-14 245.067027,3.13400675 245.067027,7 C245.067027,7.29127721 245.048846,7.58227046 245.012591,7.87128256 L229.75521,129.497876 C229.504202,131.49882 227.802942,133 225.786316,133 L18.043731,133 C16.0018681,133 14.2877657,131.462098 14.067148,129.432189 L0.722558976,6.64828366 C0.364521799,3.35397441 2.74484062,0.393162635 6.03914986,0.0351254581 C6.25445212,0.0117256472 6.4708634,-1.73657355e-15 6.68743352,0 Z" id="path-7"></path>
        <rect id="path-9" x="0" y="0" width="222" height="16" rx="8"></rect>
    </defs>
    <g id="智慧柳城所有icon" stroke="none" stroke-width="1" fill="none" fill-rule="evenodd">
        <g id="编组-4">
            <rect id="矩形" x="0" y="0" width="335" height="313"></rect>
            <g id="编组-3" transform="translate(16.665197, 14.000000)">
                <g id="路径-13" transform="translate(39.334803, 0.000000)">
                    <path d="M184,133.5 C195.183766,133.5 205.308766,138.033117 212.637825,145.362175 C219.966883,152.691234 224.5,162.816234 224.5,174 L224.5,174 L224.5,209 C224.5,210.518783 223.884392,211.893783 222.889087,212.889087 C221.893783,213.884392 220.518783,214.5 219,214.5 L219,214.5 L8,214.5 C6.48121694,214.5 5.10621694,213.884392 4.1109127,212.889087 C3.11560847,211.893783 2.5,210.518783 2.5,209 L2.5,209 L2.5,174 C2.5,162.816234 7.03311691,152.691234 14.3621754,145.362175 C21.6912338,138.033117 31.8162338,133.5 43,133.5 L43,133.5 Z" id="矩形" stroke="#0B0269" stroke-width="5" fill="#FF005A"></path>
                    <path d="M52.0040588,135.88195 C37.4009145,139.106199 29.0803655,142.495209 27.0424118,146.048981 C25.0232417,146.288534 21.2856445,145.955971 15.8296204,145.051292 L24.6244431,135.88195 L40.5135727,133.799622 L52.0040588,135.88195 Z" id="路径-20" fill="#C0006F"></path>
                    <path d="M212.004059,135.88195 C197.400915,139.106199 189.080365,142.495209 187.042412,146.048981 C185.023242,146.288534 181.285645,145.955971 175.82962,145.051292 L184.624443,135.88195 L200.513573,133.799622 L212.004059,135.88195 Z" id="路径-20" fill="#C0006F" transform="translate(193.916840, 139.961915) scale(-1, 1) translate(-193.916840, -139.961915) "></path>
                    <path d="M184,133.5 C195.183766,133.5 205.308766,138.033117 212.637825,145.362175 C219.966883,152.691234 224.5,162.816234 224.5,174 L224.5,174 L224.5,209 C224.5,210.518783 223.884392,211.893783 222.889087,212.889087 C221.893783,213.884392 220.518783,214.5 219,214.5 L219,214.5 L8,214.5 C6.48121694,214.5 5.10621694,213.884392 4.1109127,212.889087 C3.11560847,211.893783 2.5,210.518783 2.5,209 L2.5,209 L2.5,174 C2.5,162.816234 7.03311691,152.691234 14.3621754,145.362175 C21.6912338,138.033117 31.8162338,133.5 43,133.5 L43,133.5 Z" id="矩形" stroke="#0B0269" stroke-width="5"></path>
                    <mask id="mask-2" fill="white">
                        <use xlink:href="#path-1"></use>
                    </mask>
                    <use id="蒙版" fill="#FFFBF6" xlink:href="#path-1"></use>
                    <path d="M55.4950562,40.2844009 C65.1416329,40.2844009 70.2561959,40.2844009 70.8387451,40.2844009 C71.4212943,40.2844009 75.5493003,39.6970545 83.2227631,38.5223615 L88.0752563,32.1217499 C88.8389486,28.6094055 88.8389486,26.8532333 88.0752563,26.8532333 C87.3115641,26.8532333 84.5672709,26.3157552 79.8423767,25.240799 L73,21.8518026 L66.5691223,20.01651 C62.7891032,24.3957163 60.8990936,26.8833008 60.8990936,27.4792633 C60.8990936,28.0752258 59.0977478,32.343605 55.4950562,40.2844009 Z" id="路径-15" fill="#8B7FA0" mask="url(#mask-2)"></path>
                    <path d="M57.4251378,34.369606 C71.7515657,36.4679794 80.5369873,33.8225454 83.7814026,26.4333038 C84.1795654,26.3089956 85.61085,26.4489721 88.0752563,26.8532333 C87.6069946,31.8641485 87.3728638,34.369606 87.3728638,34.369606 C87.3728638,34.369606 82.7674408,37.8068996 81.9632874,38.5223615 C81.1591339,39.2378235 66.2882385,41.9959717 65.4353943,41.9959717 C64.58255,41.9959717 53.2793184,40.2844009 53.9901536,40.2844009 C54.4640437,40.2844009 55.6090385,38.3128026 57.4251378,34.369606 Z" id="路径-16" fill="#62579D" mask="url(#mask-2)"></path>
                    <path d="M83.8728638,111.498077 C85.2909546,119.166026 88.3333333,123 93,123 C97.6666667,123 108.540482,123 125.621445,123 C129.014455,122.035441 130.71096,118.896225 130.71096,113.582352 C130.71096,105.611542 134.432872,98.911377 141.855228,98.911377 C149.277585,98.911377 156.372711,91.0386963 156.372711,77.5193481 C156.372711,68.5064494 156.372711,56.0948003 156.372711,40.2844009 C145.492691,11.4458745 122.035121,0.233688354 86,6.64784241 C49.9648794,13.0619965 55.631546,9.39292908 103,-4.35935974 C154.624502,-5.67870331 180.436752,-5.67870331 180.436752,-4.35935974 C180.436752,-3.04001617 178.037821,43.0129776 173.23996,133.799622 L71.0166297,133.799622 L83.8728638,111.498077 Z" id="路径-19" fill="#ADB2D6" opacity="0.671162923" mask="url(#mask-2)"></path>
                    <path d="M135.495056,40.2844009 C145.141633,40.2844009 150.256196,40.2844009 150.838745,40.2844009 C151.421294,40.2844009 155.5493,39.6970545 163.222763,38.5223615 L168.075256,32.1217499 C168.838949,28.6094055 168.838949,26.8532333 168.075256,26.8532333 C167.311564,26.8532333 164.567271,26.3157552 159.842377,25.240799 L153,21.8518026 L146.569122,20.01651 C142.789103,24.3957163 140.899094,26.8833008 140.899094,27.4792633 C140.899094,28.0752258 139.097748,32.343605 135.495056,40.2844009 Z" id="路径-15" fill="#8B7FA0" mask="url(#mask-2)" transform="translate(152.071541, 30.150455) scale(-1, 1) translate(-152.071541, -30.150455) "></path>
                    <path d="M137.425138,34.369606 C151.751566,36.4679794 160.536987,33.8225454 163.781403,26.4333038 C164.179565,26.3089956 165.61085,26.4489721 168.075256,26.8532333 C167.606995,31.8641485 167.372864,34.369606 167.372864,34.369606 C167.372864,34.369606 162.767441,37.8068996 161.963287,38.5223615 C161.159134,39.2378235 146.288239,41.9959717 145.435394,41.9959717 C144.58255,41.9959717 133.279318,40.2844009 133.990154,40.2844009 C134.464044,40.2844009 135.609038,38.3128026 137.425138,34.369606 Z" id="路径-16" fill="#62579D" mask="url(#mask-2)" transform="translate(151.016630, 34.192712) scale(-1, 1) translate(-151.016630, -34.192712) "></path>
                    <path d="M54.057724,107.292953 L54.057724,131.965057 L63.2661438,146.048981 L157.842041,146.048981 L163.406464,137.942566 L166.19516,126.670967 L166.19516,107.292953 L138.10733,107.292953 L138.10733,121.7966 L134,128.10376 L129.283752,130.176483 C105.0295,130.176483 92.2888997,130.176483 91.0619507,130.176483 C89.8350016,130.176483 87.437561,128.389394 83.8696289,124.815216 L82.3375244,118.734718 L82.3375244,107.292953 L54.057724,107.292953 Z" fill="#8C81A5" mask="url(#mask-2)"></path>
                    <path d="M154.426971,107.292953 C154.50351,127.26268 146.536428,137.247543 130.525726,137.247543 C114.515025,137.247543 93.9295959,137.247543 68.7694397,137.247543 C58.6589661,134.573939 53.1697744,130.260376 52.3018646,124.306854 C52.7177378,124.054087 54.3923747,130.285136 57.3257751,143 C62.8384705,145.88149 66.1239217,147.322235 67.1821289,147.322235 C68.2403361,147.322235 97.3219503,146.897817 154.426971,146.048981 L162.440247,139.571457 L166.19516,134.00798 L166.19516,107.292953 L154.426971,107.292953 Z" id="路径-14" fill="#635B99" mask="url(#mask-2)"></path>
                    <path d="M117,0 C145.718807,0 169,23.281193 169,52 L169,127 C169,140.254834 158.254834,151 145,151 L75,151 C61.745166,151 51,140.254834 51,127 L51,52 C51,23.281193 74.281193,0 103,0 L117,0 Z M117,5 L103,5 C77.3021906,5 56.4213438,25.6238687 56.0062967,51.2227691 L56,52 L56,127 C56,137.380578 64.3246359,145.816833 74.6622002,145.997058 L75,146 L145,146 C155.380578,146 163.816833,137.675364 163.997058,127.3378 L164,127 L164,52 C164,26.3021906 143.376131,5.42134381 117.777231,5.00629666 L117,5 Z" id="蒙版" fill="#09007D" fill-rule="nonzero" mask="url(#mask-2)"></path>
                </g>
                <g id="编组-2" transform="translate(93.324957, 17.754863)" fill="#09007D" fill-rule="nonzero">
                    <path d="M16.8901578,0.499227214 C17.293561,0.648478214 17.6842703,0.830020099 18.0583942,1.0422496 C19.9888358,2.13633167 21.6630193,2.98230399 23.0809447,3.58016657 C24.7308921,4.27586026 26.8081605,4.66544046 29.3127499,4.74890717 L29.8193654,4.761519 C33.8097769,4.8279371 37.0098464,8.08173323 37.0098464,12.0726974 C37.0098464,17.2418975 33.6819684,21.8234567 28.766139,23.4219719 C26.1035398,24.2877922 23.431289,24.8955139 20.7493865,25.245137 C16.5209854,25.7963675 11.2596674,25.9207197 4.9654326,25.6181935 L3.43498426,25.5373912 L1.8648719,25.4401967 C0.762842062,25.3653365 -0.0700123805,24.4114261 0.00465266103,23.309383 C0.0175858219,23.1184918 0.057843593,22.930444 0.12492937,22.7512603 L6.61168086,5.22638392 C8.14438416,1.08247258 12.7463961,-1.03388057 16.8901578,0.499227214 Z M15.1551971,5.18856738 C13.6568342,4.6342035 10.9605208,3.30281273 10.3283736,4.74890717 L10.3283736,5.39123337 L6.61168086,10.930455 L3.43498426,20.2870898 L4.9654326,20.669137 C10.126368,20.8681114 16.1092724,20.7674985 19.6283162,20.3464134 L20.1030365,20.2870898 C22.4766651,19.9776545 24.8478839,19.4383933 27.2199469,18.6670492 C30.0762248,17.738253 32.0098464,15.0761973 32.0098464,12.0726974 C32.0098464,10.8107074 30.9979539,9.78182847 29.736124,9.76082604 C26.4103069,9.70544922 23.5490219,9.20382042 21.1383379,8.18736514 C19.5225759,7.50608557 17.6806376,6.575346 15.5913433,5.39123337 C15.4985043,5.33856852 15.4027361,5.29088579 15.304454,5.24839156 L15.1551971,5.18856738 Z" id="矩形"></path>
                </g>
                <g id="编组-2" transform="translate(187.829880, 30.644359) scale(-1, 1) translate(-187.829880, -30.644359) translate(169.324957, 17.754863)" fill="#09007D" fill-rule="nonzero">
                    <path d="M16.8901578,0.499227214 C17.293561,0.648478214 17.6842703,0.830020099 18.0583942,1.0422496 C19.9888358,2.13633167 21.6630193,2.98230399 23.0809447,3.58016657 C24.7308921,4.27586026 26.8081605,4.66544046 29.3127499,4.74890717 L29.8193654,4.761519 C33.8097769,4.8279371 37.0098464,8.08173323 37.0098464,12.0726974 C37.0098464,17.2418975 33.6819684,21.8234567 28.766139,23.4219719 C26.1035398,24.2877922 23.431289,24.8955139 20.7493865,25.245137 C16.5209854,25.7963675 11.2596674,25.9207197 4.9654326,25.6181935 L3.43498426,25.5373912 L1.8648719,25.4401967 C0.762842062,25.3653365 -0.0700123805,24.4114261 0.00465266103,23.309383 C0.0175858219,23.1184918 0.057843593,22.930444 0.12492937,22.7512603 L6.61168086,5.22638392 C8.14438416,1.08247258 12.7463961,-1.03388057 16.8901578,0.499227214 Z M15.1551971,5.18856738 C13.6568342,4.6342035 10.9605208,3.30281273 10.3283736,4.74890717 L10.3283736,5.39123337 L6.61168086,10.930455 L3.43498426,20.2870898 L4.9654326,20.669137 C10.126368,20.8681114 16.1092724,20.7674985 19.6283162,20.3464134 L20.1030365,20.2870898 C22.4766651,19.9776545 24.8478839,19.4383933 27.2199469,18.6670492 C30.0762248,17.738253 32.0098464,15.0761973 32.0098464,12.0726974 C32.0098464,10.8107074 30.9979539,9.78182847 29.736124,9.76082604 C26.4103069,9.70544922 23.5490219,9.20382042 21.1383379,8.18736514 C19.5225759,7.50608557 17.6806376,6.575346 15.5913433,5.39123337 C15.4985043,5.33856852 15.4027361,5.29088579 15.304454,5.24839156 L15.1551971,5.18856738 Z" id="矩形"></path>
                </g>
                <g id="编组" transform="translate(0.000000, 164.850008)">
                    <g id="路径-6" transform="translate(2.988215, 7.487962)">
                        <mask id="mask-4" fill="white">
                            <use xlink:href="#path-3"></use>
                        </mask>
                        <use id="蒙版" fill="#FFFFFF" xlink:href="#path-3"></use>
                        <path d="M8.29930878,43.8272514 C20.0166601,44.6628532 26.8096631,46.491848 28.678318,49.3142357 C30.5469729,52.1366234 28.6133461,57.2991549 22.8774376,64.8018303 C30.1351844,68.8481655 34.5958994,73.5985724 36.2595825,79.053051 C37.9232656,84.5075296 36.9596833,94.3818277 33.3688354,108.675945 L45.765625,108.675945 L49.0573273,85.685215 L37.4555664,44.6986885 L21.4854032,39.6851518 L8.29930878,40.807888 L8.29930878,43.8272514 Z" fill="#B6B8D8" mask="url(#mask-4)"></path>
                        <path d="M8.29930878,40.807888 C23.3771484,39.1291606 32.9791712,40.9644928 37.1053772,46.3138847 C41.2315832,51.6632767 39.881923,36.2253151 33.0563965,0 L30.6223288,0 L17.6421967,19.6490517 L8.29930878,40.807888 Z" id="路径-10" fill="#FF005A" mask="url(#mask-4)"></path>
                        <path d="M12.4059753,30.7873344 C25.1231486,29.3046106 33.2044373,30.9516087 36.6498413,35.7283287 C40.0952454,40.5050487 40.0952454,43.8362916 36.6498413,45.7220573 C32.2233124,42.6528943 29.5661379,41.1183128 28.678318,41.1183128 C27.7904981,41.1183128 24.3736064,40.6405925 18.4276428,39.6851518 L7.62240443,41.1183128 L12.4059753,30.7873344 Z" id="路径-11" fill="#C0006F" mask="url(#mask-4)"></path>
                    </g>
                    <path d="M33.8240592,0 L38.1111417,2.57311563 L35.9087392,6.25583205 L33.7997003,9.80953486 L32.1797166,12.5595416 L30.6195299,15.2268671 L28.7534158,18.4446771 L27.3278438,20.9257867 L25.6300603,23.9106686 L24.3392026,26.205309 L23.4103709,27.8718518 L22.2243598,30.0212856 L21.0982879,32.0876752 L20.032175,34.0709708 L19.2719502,35.5038819 L18.5454717,36.8900033 L17.8527477,38.2293139 L17.1937866,39.5217926 L16.5685966,40.7674183 L16.170569,41.5717956 L15.6016826,42.739286 L15.0665894,43.8598672 L14.7286387,44.5808502 L14.4057134,45.2809689 L13.9495033,46.292013 L13.6641521,46.9399438 L13.2643147,47.8726767 C12.9404402,48.6417014 12.6261352,49.4037066 12.3213907,50.1586855 L11.7246466,51.6592727 C6.46862941,65.0802034 4.30833134,76.2230677 5.19223442,85.0468957 C6.91542488,102.249162 20.1566299,111.75295 45.8298079,113.615222 L46.6115892,113.669315 L46.2829013,118.6585 C17.9085072,116.789193 2.23927298,105.731879 0.217133405,85.5452629 C-0.826667273,75.1252091 1.8957916,62.2052087 8.32067466,46.7344962 L8.78995407,45.6165215 L9.06846435,44.9701747 L9.51422808,43.9622281 L9.99359716,42.9081509 L10.5065799,41.8079222 L11.0531845,40.6615207 L11.6334194,39.4689253 L12.4593938,37.8069047 L13.3451897,36.0626741 L13.8105269,35.1597144 L14.5365884,33.7667019 L15.2963244,32.327383 L16.0897431,30.8417366 L17.2000443,28.7887731 L18.3702603,26.6533621 L19.6004107,24.4354534 L21.2224113,21.5469791 L22.2405932,19.7519431 L24.0125587,16.6568963 L25.4976495,14.0878145 L27.0427778,11.4359724 L29.0586458,8.00471178 L31.1683916,4.44396231 L33.3720536,0.753626214 L33.8240592,0 Z" id="路径-3" fill="#0B0269" fill-rule="nonzero"></path>
                    <path d="M42.7474696,72.2897927 L25.6023498,72.2897927 C25.436676,72.2878308 25.3039444,72.1519517 25.3058857,71.9862776 C25.3071485,71.8785131 25.3661182,71.7797065 25.4607492,71.7281276 C29.3641416,69.5289318 32.3790087,68.0985972 34.5053507,67.4371239 C36.8076232,66.7209212 39.5549961,66.4435699 42.7474696,66.6050698 L42.7474696,72.2897927 Z" id="路径-5" fill="#0B0269"></path>
                    <path d="M10.6106195,47.0576134 C15.231261,45.395665 20.384023,44.8364801 26.051773,45.3662207 C31.7097031,45.8950435 36.8344043,48.2091529 41.3773778,52.2671276 L41.8015758,52.6526705 L39.0859872,55.5896041 C35.0692112,51.8755566 30.6181226,49.8104518 25.6795323,49.3488627 C20.7866843,48.8915489 16.3893971,49.3275697 12.4725922,50.6447461 L11.9644282,50.8215478 L10.6106195,47.0576134 Z" id="路径-4" fill="#140388" fill-rule="nonzero"></path>
                </g>
                <g id="编组" transform="translate(281.966085, 224.179258) scale(-1, 1) translate(-281.966085, -224.179258) translate(258.000000, 164.850008)">
                    <g id="路径-6" transform="translate(2.988215, 7.487962)">
                        <mask id="mask-6" fill="white">
                            <use xlink:href="#path-5"></use>
                        </mask>
                        <use id="蒙版" fill="#FFFFFF" xlink:href="#path-5"></use>
                        <path d="M8.29930878,43.8272514 C20.0166601,44.6628532 26.8096631,46.491848 28.678318,49.3142357 C30.5469729,52.1366234 28.6133461,57.2991549 22.8774376,64.8018303 C30.1351844,68.8481655 34.5958994,73.5985724 36.2595825,79.053051 C37.9232656,84.5075296 36.9596833,94.3818277 33.3688354,108.675945 L45.765625,108.675945 L49.0573273,85.685215 L37.4555664,44.6986885 L21.4854032,39.6851518 L8.29930878,40.807888 L8.29930878,43.8272514 Z" fill="#B6B8D8" mask="url(#mask-6)"></path>
                        <path d="M8.29930878,40.807888 C23.3771484,39.1291606 32.9791712,40.9644928 37.1053772,46.3138847 C41.2315832,51.6632767 39.881923,36.2253151 33.0563965,0 L30.6223288,0 L17.6421967,19.6490517 L8.29930878,40.807888 Z" id="路径-10" fill="#FF005A" mask="url(#mask-6)"></path>
                        <path d="M12.4059753,30.7873344 C25.1231486,29.3046106 33.2044373,30.9516087 36.6498413,35.7283287 C40.0952454,40.5050487 40.0952454,43.8362916 36.6498413,45.7220573 C32.2233124,42.6528943 29.5661379,41.1183128 28.678318,41.1183128 C27.7904981,41.1183128 24.3736064,40.6405925 18.4276428,39.6851518 L7.62240443,41.1183128 L12.4059753,30.7873344 Z" id="路径-11" fill="#C0006F" mask="url(#mask-6)"></path>
                    </g>
                    <path d="M33.8240592,0 L38.1111417,2.57311563 L35.9087392,6.25583205 L33.7997003,9.80953486 L32.1797166,12.5595416 L30.6195299,15.2268671 L28.7534158,18.4446771 L27.3278438,20.9257867 L25.6300603,23.9106686 L24.3392026,26.205309 L23.4103709,27.8718518 L22.2243598,30.0212856 L21.0982879,32.0876752 L20.032175,34.0709708 L19.2719502,35.5038819 L18.5454717,36.8900033 L17.8527477,38.2293139 L17.1937866,39.5217926 L16.5685966,40.7674183 L16.170569,41.5717956 L15.6016826,42.739286 L15.0665894,43.8598672 L14.7286387,44.5808502 L14.4057134,45.2809689 L13.9495033,46.292013 L13.6641521,46.9399438 L13.2643147,47.8726767 C12.9404402,48.6417014 12.6261352,49.4037066 12.3213907,50.1586855 L11.7246466,51.6592727 C6.46862941,65.0802034 4.30833134,76.2230677 5.19223442,85.0468957 C6.91542488,102.249162 20.1566299,111.75295 45.8298079,113.615222 L46.6115892,113.669315 L46.2829013,118.6585 C17.9085072,116.789193 2.23927298,105.731879 0.217133405,85.5452629 C-0.826667273,75.1252091 1.8957916,62.2052087 8.32067466,46.7344962 L8.78995407,45.6165215 L9.06846435,44.9701747 L9.51422808,43.9622281 L9.99359716,42.9081509 L10.5065799,41.8079222 L11.0531845,40.6615207 L11.6334194,39.4689253 L12.4593938,37.8069047 L13.3451897,36.0626741 L13.8105269,35.1597144 L14.5365884,33.7667019 L15.2963244,32.327383 L16.0897431,30.8417366 L17.2000443,28.7887731 L18.3702603,26.6533621 L19.6004107,24.4354534 L21.2224113,21.5469791 L22.2405932,19.7519431 L24.0125587,16.6568963 L25.4976495,14.0878145 L27.0427778,11.4359724 L29.0586458,8.00471178 L31.1683916,4.44396231 L33.3720536,0.753626214 L33.8240592,0 Z" id="路径-3" fill="#0B0269" fill-rule="nonzero"></path>
                    <path d="M42.7474696,72.2897927 L25.6023498,72.2897927 C25.436676,72.2878308 25.3039444,72.1519517 25.3058857,71.9862776 C25.3071485,71.8785131 25.3661182,71.7797065 25.4607492,71.7281276 C29.3641416,69.5289318 32.3790087,68.0985972 34.5053507,67.4371239 C36.8076232,66.7209212 39.5549961,66.4435699 42.7474696,66.6050698 L42.7474696,72.2897927 Z" id="路径-5" fill="#0B0269"></path>
                    <path d="M10.6106195,47.0576134 C15.231261,45.395665 20.384023,44.8364801 26.051773,45.3662207 C31.7097031,45.8950435 36.8344043,48.2091529 41.3773778,52.2671276 L41.8015758,52.6526705 L39.0859872,55.5896041 C35.0692112,51.8755566 30.6181226,49.8104518 25.6795323,49.3488627 C20.7866843,48.8915489 16.3893971,49.3275697 12.4725922,50.6447461 L11.9644282,50.8215478 L10.6106195,47.0576134 Z" id="路径-4" fill="#140388" fill-rule="nonzero"></path>
                </g>
                <g id="路径-7-+-路径-8-蒙版" transform="translate(30.334803, 143.000000)">
                    <mask id="mask-8" fill="white">
                        <use xlink:href="#path-7"></use>
                    </mask>
                    <use id="蒙版" fill="#D0D0E9" xlink:href="#path-7"></use>
                    <path d="M14.4713593,99.4406891 C72.9014842,123.2957 121.894572,125.277384 161.450623,105.385742 C201.006673,85.4940999 218.406158,51.3818461 213.649078,3.04898071 L240.900238,3.04898071 L243.340179,6.77922058 L226.290558,130.424362 L16.276786,130.424362 L14.4713593,99.4406891 Z" id="路径-7" fill="#9090C7" mask="url(#mask-8)"></path>
                    <path d="M7.77633847,24.423124 C7.98339904,14.6497795 13.9430033,9.7631073 25.6551514,9.7631073 C37.3672994,9.7631073 42.5887858,9.7631073 41.3196106,9.7631073 C42.4512634,13.2634125 48.0309652,15.0135651 58.0587158,15.0135651 C68.0864665,15.0135651 74.3566488,13.2634125 76.8692627,9.7631073 L243.340179,9.7631073 L240.900238,3.04898071 L4.69885254,3.04898071 L3.27574069,7.21633148 L7.77633847,24.423124 Z" id="路径-8" fill="#F1F0F5" mask="url(#mask-8)"></path>
                    <path d="M238.067027,0 C241.93302,0 245.067027,3.13400675 245.067027,7 C245.067027,7.29127721 245.048846,7.58227046 245.012591,7.87128256 L229.75521,129.497876 C229.504202,131.49882 227.802942,133 225.786316,133 L18.043731,133 C16.0018681,133 14.2877657,131.462098 14.067148,129.432189 L0.722558976,6.64828366 C0.364521799,3.35397441 2.74484062,0.393162635 6.03914986,0.0351254581 C6.25445212,0.0117256472 6.4708634,0 6.68743352,0 L238.067027,0 Z M238.067027,5 L6.68743352,5 C6.6513385,5 6.61526995,5.00195427 6.57938624,5.00585424 C6.06955267,5.06126476 5.69106636,5.49071346 5.68737551,5.99138197 L5.69328776,6.10804728 L18.94,128 L224.904,128 L240.051474,7.24893787 C240.056653,7.20765043 240.060541,7.16622148 240.063135,7.12471163 L240.067027,7 C240.067027,5.8954305 239.171596,5 238.067027,5 Z" id="蒙版" fill="#09007D" fill-rule="nonzero" mask="url(#mask-8)"></path>
                </g>
                <g id="路径-9" transform="translate(42.334803, 271.000000)">
                    <mask id="mask-10" fill="white">
                        <use xlink:href="#path-9"></use>
                    </mask>
                    <use id="蒙版" fill="#D8DCFF" xlink:href="#path-9"></use>
                    <path d="M4.27678597,8 L168.910126,8 C175.691762,7.77353923 179.566355,5.91499329 180.533905,2.42436218 C180.940826,2.42788188 193.168345,2.42788188 217.216461,2.42436218 L219.593964,8 L217.216461,14.5452576 L9.71073914,16 L3.94809806,12.5085084 L4.27678597,8 Z" fill="#9090C7" mask="url(#mask-10)"></path>
                    <path d="M214,0 C218.418278,0 222,3.581722 222,8 C222,12.418278 218.418278,16 214,16 L8,16 C3.581722,16 0,12.418278 0,8 C0,3.581722 3.581722,0 8,0 L214,0 Z M214,5 L8,5 C6.34314575,5 5,6.34314575 5,8 C5,9.59768088 6.24891996,10.9036609 7.82372721,10.9949073 L8,11 L214,11 C215.656854,11 217,9.65685425 217,8 C217,6.40231912 215.75108,5.09633912 214.176273,5.00509269 L214,5 Z" id="蒙版" fill="#140388" fill-rule="nonzero" mask="url(#mask-10)"></path>
                </g>
                <circle id="椭圆形" fill="#020077" cx="153.334803" cy="210" r="20"></circle>
                <path d="M153.334803,197 C160.514505,197 166.334803,202.820298 166.334803,210 C166.334803,210.507366 166.305738,211.007943 166.249182,211.500157 C165.505976,205.027277 160.007481,200 153.334803,200 C146.662125,200 141.16363,205.027277 140.420311,211.500838 C140.363869,211.007943 140.334803,210.507366 140.334803,210 C140.334803,202.820298 146.155101,197 153.334803,197 Z" id="形状结合" fill="#B3BEF9"></path>
                <rect id="矩形" fill="#9090C7" x="82.3348032" y="51" width="60" height="36" rx="8"></rect>
                <rect id="矩形备份-3" fill="#9090C7" x="158.334803" y="51" width="58" height="36" rx="8"></rect>
                <path d="M134.334803,51 C138.753081,51 142.334803,54.581722 142.334803,59 L142.334803,79 C142.334803,83.418278 138.753081,87 134.334803,87 L90.3348032,87 C85.9165252,87 82.3348032,83.418278 82.3348032,79 L82.3348032,59 C82.3348032,54.581722 85.9165252,51 90.3348032,51 L134.334803,51 Z M134.334803,56 L90.3348032,56 C88.7371224,56 87.4311424,57.24892 87.3398959,58.8237272 L87.3348032,59 L87.3348032,79 C87.3348032,80.5976809 88.5837232,81.9036609 90.1585304,81.9949073 L90.3348032,82 L134.334803,82 C135.932484,82 137.238464,80.75108 137.329711,79.1762728 L137.334803,79 L137.334803,59 C137.334803,57.4023191 136.085883,56.0963391 134.511076,56.0050927 L134.334803,56 Z" id="矩形" fill="#09007D" fill-rule="nonzero"></path>
                <path d="M208.334803,51 C212.753081,51 216.334803,54.581722 216.334803,59 L216.334803,79 C216.334803,83.418278 212.753081,87 208.334803,87 L166.334803,87 C161.916525,87 158.334803,83.418278 158.334803,79 L158.334803,59 C158.334803,54.581722 161.916525,51 166.334803,51 L208.334803,51 Z M208.334803,56 L166.334803,56 C164.737122,56 163.431142,57.24892 163.339896,58.8237272 L163.334803,59 L163.334803,79 C163.334803,80.5976809 164.583723,81.9036609 166.15853,81.9949073 L166.334803,82 L208.334803,82 C209.932484,82 211.238464,80.75108 211.329711,79.1762728 L211.334803,79 L211.334803,59 C211.334803,57.4023191 210.085883,56.0963391 208.511076,56.0050927 L208.334803,56 Z" id="矩形备份-3" fill="#09007D" fill-rule="nonzero"></path>
                <path d="M93.3925272,107.292953 L118.781123,107.292953 C120.437977,107.292953 121.781123,108.636099 121.781123,110.292953 L121.781123,119.176483 C121.781123,125.251615 126.705991,130.176483 132.781123,130.176483 L166.442134,130.176483 C172.517266,130.176483 177.442134,125.251615 177.442134,119.176483 L177.442134,110.292953 C177.442134,108.636099 178.785279,107.292953 180.442134,107.292953 L205.529963,107.292953 L205.529963,107.292953" id="路径-12" stroke="#09007D" stroke-width="5" stroke-linecap="square" stroke-linejoin="round"></path>
                <rect id="矩形" stroke="#09007D" stroke-width="5" fill="#9090C7" x="134.834803" y="113.5" width="29" height="8" rx="4"></rect>
                <path d="M139.334803,66.9304733 C142.728714,64.9768244 146.395381,64 150.334803,64 C154.274226,64 157.940892,64.9768244 161.334803,66.9304733" id="路径-17" stroke="#09007D" stroke-width="5"></path>
                <path d="M117.420756,56.1161804 C117.420756,56.1161804 109.629092,64.698761 94.0457636,81.8639221 L105.431849,81.8639221 L123.207667,56.1161804 C119.349726,56.1161804 117.420756,56.1161804 117.420756,56.1161804 Z" id="路径-18" fill="#FFFFFF" opacity="0.207653954"></path>
                <path d="M178.262675,56.1161804 C178.262675,56.1161804 175.523704,64.698761 170.045764,81.8639221 L175.795649,81.8639221 L192.3343,56.1161804 C182.953217,56.1161804 178.262675,56.1161804 178.262675,56.1161804 Z" id="路径-18备份-2" fill="#FFFFFF" opacity="0.207653954"></path>
                <path d="M127.41006,56.1161804 C127.41006,56.1161804 121.193353,64.698761 108.759941,81.8639221 L123.566844,81.8639221 L132.243159,56.1161804 C129.021093,56.1161804 127.41006,56.1161804 127.41006,56.1161804 Z" id="路径-18备份" fill="#FFFFFF" opacity="0.207653954"></path>
                <path d="M196.41006,56.1161804 C196.41006,56.1161804 191.009786,64.698761 180.209239,81.8639221 L192.566844,81.8639221 L201.243159,56.1161804 C198.021093,56.1161804 196.41006,56.1161804 196.41006,56.1161804 Z" id="路径-18备份-3" fill="#FFFFFF" opacity="0.207653954"></path>
            </g>
        </g>
    </g>
</svg>